:FULLY-SPECIFIED
:FORCE-ALL-JOINTS-BE-3DOF
:DEGREES
883
root 3.85195 16.5305 30.5312 -10.8246 23.6768 359.35
lfemur -15.8095 19.9983 -19.0116
ltibia 40.4913 0 0
lfoot -12.9326 0.0690648 0
ltoes -1.37978 0 0
rfemur -80.7132 -24.4467 36.5168
rtibia 101.126 0 0
rfoot 19.264 26.205 0
rtoes -8.14353 0 0
lowerback 15.0059 -4.01209 -6.64789
upperback 4.97444 -6.28636 -2.38034
thorax -2.64296 -3.11384 2.26165
lowerneck -7.71871 -3.24517 1.71638
upperneck 4.65939 -4.84264 4.94114
head 2.93726 -2.18998 1.06474
lclavicle -3.12092e-14 -4.77083e-15 0
lhumerus -33.0312 -40.5423 88.3441
lradius 60.5977 0 0
lwrist 19.6497 0 0
lhand 25.8347 11.8689 0
lfingers 7.12502 0 0
lthumb 49.9264 33.1302 0
rclavicle -3.12092e-14 -4.77083e-15 0
rhumerus -49.2556 -29.6742 -46.9493
rradius 72.2992 0 0
rwrist -23.3678 0 0
rhand -47.7649 -54.4874 0
rfingers 7.12502 0 0
rthumb -20.4424 -803.431 0
884
root 3.83986 16.5227 30.5917 -10.4687 23.7391 359.393
lfemur -16.1667 20.4628 -18.9468
ltibia 40.9226 0 0
lfoot -13.1809 0.650269 0
ltoes -1.59023 0 0
rfemur -79.6894 -24.6148 36.1602
rtibia 101.33 0 0
rfoot 19.0955 25.4315 0
rtoes -6.90415 0 0
lowerback 14.7534 -4.01252 -6.60798
upperback 4.86915 -6.27495 -2.40328
thorax -2.6172 -3.10796 2.20662
lowerneck -7.72609 -3.33886 1.60265
upperneck 4.57743 -4.95699 4.98157
head 2.9198 -2.2493 1.09206
lclavicle -3.1539e-14 -3.70498e-15 0
lhumerus -33.4569 -40.865 89.0993
lradius 60.7147 0 0
lwrist 19.4008 0 0
lhand 26.3326 12.1559 0
lfingers 7.12502 0 0
lthumb 50.3911 33.2468 0
rclavicle -3.1539e-14 -3.70498e-15 0
rhumerus -49.1298 -29.1457 -48.1561
rradius 73.88 0 0
rwrist -23.5256 0 0
rhand -46.8863 -53.6809 0
rfingers 7.12502 0 0
rthumb -19.5999 -802.532 0
885
root 3.82776 16.515 30.6522 -10.08 23.7918 359.435
lfemur -16.6183 20.9574 -18.902
ltibia 41.4665 0 0
lfoot -13.4232 1.19509 0
ltoes -1.62717 0 0
rfemur -78.2445 -24.6217 35.4486
rtibia 101.27 0 0
rfoot 18.7977 24.2147 0
rtoes -5.18702 0 0
lowerback 14.4359 -3.99166 -6.53949
upperback 4.73591 -6.22937 -2.41096
thorax -2.58914 -3.08505 2.14381
lowerneck -7.72308 -3.46233 1.46559
upperneck 4.50941 -5.10868 5.01348
head 2.90707 -2.3277 1.11883
lclavicle -3.1474e-14 -2.48973e-15 0
lhumerus -34.0079 -41.085 89.9626
lradius 60.8154 0 0
lwrist 19.1157 0 0
lhand 26.7484 12.4214 0
lfingers 7.12502 0 0
lthumb 50.7806 33.3792 0
rclavicle -3.1474e-14 -2.48973e-15 0
rhumerus -48.963 -28.2765 -49.7332
rradius 75.6341 0 0
rwrist -23.5035 0 0
rhand -45.5116 -52.4552 0
rfingers 7.12502 0 0
rthumb -18.2795 -801.205 0
886
root 3.81567 16.5072 30.7127 -9.66187 23.8332 359.476
lfemur -17.1513 21.4734 -18.8727
ltibia 42.1056 0 0
lfoot -13.6582 1.69883 0
ltoes -1.50561 0 0
rfemur -76.4198 -24.4804 34.4145
rtibia 100.963 0 0
rfoot 18.3824 22.5999 0
rtoes -3.05189 0 0
lowerback 14.0593 -3.95128 -6.44507
upperback 4.57738 -6.15247 -2.40543
thorax -2.55881 -3.04654 2.07331
lowerneck -7.71064 -3.61194 1.30798
upperneck 4.45424 -5.29314 5.03766
head 2.89861 -2.42284 1.14504
lclavicle -3.10497e-14 -1.14518e-15 0
lhumerus -34.6718 -41.2108 90.9211
lradius 60.9006 0 0
lwrist 18.7993 0 0
lhand 27.0904 12.6681 0
lfingers 7.12502 0 0
lthumb 51.1023 33.5251 0
rclavicle -3.10497e-14 -1.14518e-15 0
rhumerus -48.7607 -27.0953 -51.6398
rradius 77.5407 0 0
rwrist -23.3169 0 0
rhand -43.6876 -50.8521 0
rfingers 7.12502 0 0
rthumb -16.5264 -799.492 0
